<?xml version="1.0" encoding="UTF-8"?>
<svg id="Layer_1" data-name="Layer 1" xmlns="http://www.w3.org/2000/svg" viewBox="0 0 1791.4 1695.98">
  <defs>
    <style>
      .cls-1 {
        fill: #537a70;
      }
    </style>
  </defs>
  <path class="cls-1" d="M56.45,1662.52c-.96-9.91.88-17.7,8.35-23.75,7.02-5.68,14.37-10.98,22.26-15.76,14.74-8.92,27.86-18.52,40.95-29.99,38.55-33.76,72.46-71.81,101.27-114.25,20.58-30.33,42.62-70.76,44.38-107.96.54-11.39-35.74-41.51-45.31-49.35-25.99-21.31-49.65-43.92-71.32-69.72-13.33-15.87-26.93-30.55-38.32-47.82l-29.06-44.05c-12.65-19.18-24.28-38.17-33.66-59.35-19.27-43.5-35.72-88.04-42.93-135.02l-7.33-47.78c-1.27-8.26-4.64-30.58-5.74-43.26l2.21-46.32c0-9.93,2.35-25.54,3.17-35.33,2.83-33.68,9.03-65.97,19.8-98.19,10.06-30.1,21.34-58.77,34.26-87.7,9.87-22.09,22.4-41.5,35.28-61.9,30-47.5,64.99-90.6,106.07-129.13,66.82-62.66,174.25-133.4,259.26-164.62l39.85-14.64c98.29-36.1,201-57.98,305.66-64.13l42.25-2.49c25.54-1.5,50.27-1.53,76.12-.86,92.92,2.41,226.92,21.29,314.05,53.19l61.54,22.53c9.5,3.48,18.23,6.41,28.22,9.16,3.9-2.76,7.41-5.17,10.55-8.62l52.32-57.42,33.65-35.58,67.5-75.28c19.78-22.06,46.5-48.6,73.28-61.03,12.66-5.88,29.85-7.53,41.05-16.08h39.6c9.54,8.23,29,9.75,39.67,14.33,45.43,19.51,77.35,63.82,80.66,113.53,2.72,40.82-12.57,78.97-39,109.21-13.5,15.45-28.09,28.21-43.09,42.1-12.69,11.75-24.33,23.31-37.75,34.29l-44.73,44.15-39.39,40.02,33.63,31.23c10.63,9.87,20.56,19.14,30.4,29.95,56.92,62.64,99.17,125.56,128.65,205.51,14.95,40.55,26.32,81.43,32.59,124.18l4.08,5.57v111.03c-3.35,5.34-5.88,10.44-6.7,16.59l-3.28,24.61c-4.91,36.82-16.79,71.8-28.96,107.04-11.45,33.18-28.27,62.79-44.39,93.6l-9.72,18.58c-20.28,38.76-50.23,71.49-80.31,103.74-88.3,94.66-203.74,169.58-323.92,217.27-76.91,30.52-157.04,51.9-238.84,64.08-91.93,13.69-242.42,15.46-332.46,1.79l-45.08-6.84c-8.35-1.27-15.92.21-23.42,4.19-11,5.84-21.28,12.28-31.74,19.17-9.28,6.1-17.92,12.06-27.82,17.29-26.63,14.09-53.44,26.02-81.37,37.68-82.76,34.56-149.73,49.76-237.61,64.29-8.15,1.35-15.03,3.75-22.06,7.79H102.94c-16.92-14.65-43.62-3.73-46.49-33.45ZM1304.7,551.2l79.39-79.85c18.25-18.36,37.86-33.82,55.83-52.2l31.7-32.43c20.41-20.88,42.77-38.56,63.15-59.74,18.41-19.12,38.54-35.13,57.03-53.89l21.4-21.71c9.72-9.86,20.69-17.6,30.38-27.61,8.58-8.86,17.52-16.29,27.08-24.03,8.15-6.6,15.52-13.76,21.01-22.77,12.23-20.05,13.11-44.74,2.79-65.97-12-24.7-36.26-41.79-63.86-43.1-23.66-1.12-44.99,9.38-60.3,26.54l-43.43,48.69-119.21,132.5-35.13,36.2-82.64,89.14-90.17,96.75c-6.8,7.29-12.01,14.45-17.18,22.95-2.72,13.42-3.22,27.39,2.68,40.3,5.45,11.92,16.29,22.2,29.2,25.95,15.83,4.6,33.43,2.78,47.9-4.49,6.95-3.5,12.79-7.87,19.16-11.82l23.24-19.42ZM744.81,1349.13c33.56-13.6,62.44-32.97,90.86-54.32,5.22-3.92,11.74-5.37,17.09-9.99,21.26-18.38,41.45-37.54,59.99-58.53-.88-5.73,3.04-8.87,7.17-10.21,6.41-2.09,6.44-8.72,8.52-13.44,2.66-6.01,7.89-10.78,11.57-16.37,46.12-70.18,66.03-149.83,53.79-233.44-6.69-45.69-2.84-85.73,20.6-125.92,2.61-4.47,19.01-30.18,21.34-29.41l2.35.77,28.54-32.48c1.62-1.85,1.59-4.52,1.57-6.48,5.33-8.25,12.83-15.75,20.01-22.93l46.97-46.96c7.85-7.85,15.77-14.74,24.29-21.71,7.46-6.11,13.87-12.36,19.42-20.35-3.05-3.32-5.73-6.12-9.04-8.23-12.02-7.65-21.27-17.36-29.24-29.15l-13.35-19.75c-1.08-1.4-1.42-1.66-1.33.7-6.23,8.27-12.77,15.75-20.41,22.81-14.95,13.81-28.37,27.72-41.85,43.13-18.92,21.64-38.93,41.54-60.41,60.62l-41.35,36.71c-14.16,12.57-29.78,22.27-47.14,29.98-34.98,15.55-73.73,17.67-111.58,20.59-17.95,1.38-34.91,3.12-52.72,6.31-64.48,11.56-111.62,39.34-161.08,80.43-1.65.53-5.39,1.22-6.68,2.44-12.84,12.09-25.78,23.42-36.24,37.51-1.74,2.34-2.25,6.3-4.67,8.52-6.92,6.38-12.6,13.21-18.65,20.34l-27.14,31.96c-49.59,58.4-77.23,159.97-57.28,238.04,13.69,53.6,50.54,97.24,101.22,119.25,45.21,19.63,100.28,22.73,148.65,15.84,19.7-2.81,37.42-8.65,56.22-16.26Z"/>
  <path class="cls-1" d="M616.14,1285.68c-7.72-2.69-13.15-7.32-17.8-13.38-2.11-7.29-1.69-15.44,3.06-21.69,9.6-6.86,15.5-9.09,18.3-20.62.31-1.27,3.75-1.87,4.71-2.68,27.43-23.26,20.13-25.43,25.85-30.81,8.47-7.96,15.25-16.48,22.91-25.13,12.36-13.95,25.51-26.09,38.68-39.33,15.99-16.06,31.14-31.94,48.04-47.11,4.8-4.31,12.82-1.66,18.26-.79,10.23,8.93,23.46,22.99,13.29,36.38-5.16,6.8-10.95,12.94-17.28,18.84-8.96,8.35-17.04,16.65-25.01,26.06-12.02,14.19-24.49,27.11-38.12,39.71-6.95,8.06-14.94,14.24-22.02,22.13l-28.35,31.57c-6.96,7.75-14.57,14.26-22.9,20.3-6.62,3.92-13.14,6.6-21.62,6.57Z"/>
  <path class="cls-1" d="M531.85,1216.63c-9.3-4.82-1.34-14.82-2.84-24.42,3.77-2.57,8.5-5.71,11.37-9.49,4.85-6.39,10.29-11.58,15.37-17.59l15.62-18.5,49.84-50.23c1.52-1.53,1.29-4.67,2.05-6.04,3.48-6.23,9.69-11.02,14.27-16.59,6.1-7.43,11.94-14.48,18.88-21.18l26.96-26.04c7.22-6.97,18.42-7.17,26.43-1.89,6.26,4.13,10.46,10.14,12.25,17.41,4.37,17.75-13.22,26.21-21.63,35.59l-15.64,17.45c-1.92,2.15-6.24,2.9-8.73,5.3-19.64,18.92-38.4,37.88-56.52,58.25-3.41,3.83-5.97,8.04-9.19,12.08-12.77,16-43.64,45.69-62.31,54.8l-4.24-2.75-11.94-6.18Z"/>
  <path class="cls-1" d="M514.08,1125.71c3.19,4.57-14.1,14.57-18.19,15.78-4.43,1.31-9.34.81-13.32-1.46-11.24-6.41-7.88-27.65-.12-39.31,3.2-4.81,7.04-11.87,11.78-14.99,9.54-6.28,16.21-12.77,21.65-22.78,4.3-7.92,11.06-14.71,17.45-21.46,24.96-26.35,50.39-51.23,77.26-75.63,4.18-3.8,9.59-7.9,15.13-8.06,15.98-.48,27.6,20.68,24.5,35.43-10.79,12.49-22.22,22.99-33.77,34.47-9.94,9.87-19.29,20.17-29.69,29.3-1.82.12-4.64.49-6.27,2.04-22.69,21.59-45.45,43.68-66.42,66.68Z"/>
  <path class="cls-1" d="M726.1,1305.96c-9.6,4.03-32.98,11.75-39.69,3.51-4.8-5.89,8.65-22.94,13.2-28.76,8.32-2.43,13.93-9.2,15.99-17.75l59.44-59.56c5.71-5.72,10.13-11.73,15.17-17.9,7.42-9.07,16.25-16.37,24.96-24.17,9.23-8.25,24.87-24.04,36.84-10.48,4.72,5.35,8.52,11.85,10.34,18.9,1.64,6.35-1.18,12.58-5.41,17.38l-26.2,29.78c-6.87,7.8-13.86,14.53-21.29,21.66-12.77,12.26-24.13,25.03-37.53,36.62-14.14,12.23-28.14,23.37-45.83,30.79Z"/>
  <path class="cls-1" d="M1627.66,188.17c-18.43,5.92-37.42-6.24-47.88-20.58-1.26-10.66-1.39-21.45,3-31.34,5.99-13.52,19.37-20.24,34.17-20.6,19.47-.48,38.58,13.66,39.09,34.41.42,16.93-12.33,32.96-28.37,38.11Z"/>
</svg>
