<svg xmlns="http://www.w3.org/2000/svg" width="1024" height="1024" viewBox="0 0 1024 1024" preserveAspectRatio="xMidYMid meet">
  <g transform="translate(369, 298) scale(0.1404)">
    <path fill="rgb(83, 122, 112)" d="M 1836.3 0 L 1882.69 0 C 1882.86 0.225284 1883.01 0.454524 1883.18 0.675852 C 1888.6 7.78758 1918.1 12.1976 1928.79 16.8958 C 1987.48 42.7112 2026.27 107.081 2018.67 171.431 C 2010.61 239.752 1973.7 274.691 1925.33 317.721 C 1917.86 324.367 1911.02 331.7 1903.65 338.452 C 1896.15 345.318 1888.19 351.648 1880.69 358.5 C 1863.79 373.937 1847.9 390.861 1831.7 407.036 C 1816.68 422.031 1800.82 436.729 1786.66 452.533 C 1807.74 473.75 1833.17 493.883 1852.71 514.708 C 1912.79 578.74 1964.56 651.707 1997.38 733.349 C 2019.62 788.709 2034.22 837.994 2043.42 896.957 C 2043.76 899.136 2046.29 901.564 2048 902.804 L 2048 1031.04 C 2038.35 1039.69 2038.6 1070.23 2035.54 1083.74 C 2018.29 1159.85 1997.07 1234.49 1955.33 1301.26 C 1949.48 1310.63 1945.09 1322.25 1938.8 1331.55 C 1831.24 1498.51 1657.95 1622.27 1475.04 1694.32 C 1395.85 1724.84 1313.78 1747.33 1230.09 1761.44 C 1105.42 1782.13 972.892 1780.99 847.528 1768.65 C 830.108 1768.68 776.984 1754.63 761.939 1759.73 C 739.025 1767.49 706.971 1793.39 684.301 1805.24 C 643.647 1826.49 599.174 1845.64 556.31 1862.02 C 517.367 1876.89 471.599 1890.46 431.242 1899.93 C 404.409 1906.11 377.412 1911.56 350.28 1916.25 C 338.028 1918.44 303.894 1922.2 296.699 1930 L 123.337 1930 C 112.059 1918.13 91.1336 1921.71 78.995 1910.92 C 73.1352 1905.71 71.5442 1898.02 70.985 1890.53 C 70.4519 1883.39 70.699 1875.6 75.6556 1869.96 C 88.5748 1855.26 113.984 1843.28 130.606 1830.62 C 162.856 1806.05 195.141 1774.07 221.573 1743.31 C 258.427 1700.42 307.3 1633.39 316.616 1576.42 C 317.457 1571.28 319.28 1564.16 318.66 1559.05 C 318.618 1558.7 318.56 1558.36 318.486 1558.02 C 314.53 1539.92 256.613 1496.21 240.864 1481.69 C 225.463 1467.49 209.675 1452.02 195.86 1436.28 C 178.356 1416.33 160.876 1396.05 144.993 1374.78 C 138.564 1366.17 133.359 1356.71 127.329 1347.83 C 103.775 1313.13 80.3947 1277.94 64.4684 1238.9 C 45.9289 1193.46 32.9309 1152.04 22.4662 1104.26 C 18.5725 1086.49 10.271 1009.13 2.52101 1000.94 C 1.7417 1000.12 0.88065 999.403 0 998.694 L 0 931.041 C 14.2818 917.445 12.9325 897.659 15.1461 879.582 C 22.4195 820.185 40.4877 772.274 62.5825 717.917 C 81.9625 670.239 96.1188 648.476 124.046 605.796 C 184.379 513.591 259.951 443.185 350.95 382.084 C 405.425 345.084 463.491 313.671 524.267 288.319 C 533.876 284.28 544.319 281.236 554.112 277.476 C 670.509 232.888 792.816 205.614 917.129 196.524 C 926.896 195.818 937.01 195.998 946.87 195.525 C 957.459 195.016 970.226 192.683 980.503 192.661 C 1009.58 192.598 1041.51 191.578 1070.43 192.6 C 1138.75 195.648 1206.78 203.43 1274.02 215.889 C 1315.47 223.328 1356.4 233.403 1396.56 246.054 C 1413.48 251.526 1433.13 258.765 1449.54 264.273 C 1464.21 269.199 1507.74 287.916 1520.29 288.716 C 1525.07 285.726 1529.93 281.042 1533.84 276.92 C 1557.67 251.865 1580.94 225.727 1603.92 199.904 C 1613.89 188.698 1625.4 178.901 1635.31 167.617 L 1690.91 105.106 C 1720.27 72.2662 1746.39 42.31 1785.37 20.301 C 1798.04 13.1492 1829.49 8.26153 1836.3 0 z M 1149.44 816.532 C 1119.74 843.948 1092.34 871.214 1055.56 889.433 C 1001.95 915.99 939.802 912.001 881.527 919.86 C 799.029 930.985 740.638 962.034 677.795 1015.25 C 663.088 1030.75 644.066 1050.2 628.411 1064.63 C 622.637 1071.48 615.299 1077.66 609.815 1084.46 C 595.38 1102.52 578.927 1119.12 565.287 1137.82 C 489.905 1241.11 462.825 1407.7 568.153 1501.53 C 625.386 1552.51 703.666 1562.36 777.364 1555.65 C 837.235 1550.2 898.088 1518.67 945.613 1483.27 C 949.006 1480.72 957.357 1473.38 960.44 1471.84 C 966.512 1466.63 972.767 1461.62 978.863 1456.44 C 1002.74 1436.13 1025 1413 1046.83 1390.45 C 1047.61 1389.05 1050.19 1386.21 1051.35 1384.84 C 1054.63 1379.9 1059.09 1374.85 1062.93 1370.25 C 1066.4 1363.97 1074.3 1355.35 1078.52 1348.91 C 1131.1 1268.4 1153.15 1178.08 1138.84 1082.49 C 1128.66 1014.5 1142.13 961.171 1186.25 906.901 C 1196.24 894.405 1203.92 883.345 1216.11 872.835 L 1225.28 861.928 C 1233.65 850.218 1254.04 830.959 1265.04 819.97 C 1280.76 804.895 1295.74 788.352 1311.79 773.682 C 1325.35 761.293 1339.04 753.131 1349.87 737.298 C 1348.14 731.657 1332.35 723.14 1325.11 716.549 C 1308.92 701.792 1302.14 685.894 1290.12 670.483 C 1284.74 684.788 1244.81 716.911 1234.1 730.499 C 1233.64 731.08 1221.05 744.925 1220.72 745.162 C 1213.78 754.689 1158.31 810.834 1149.44 816.532 z M 1467 649.57 C 1474.04 643.276 1480.24 637.732 1487.73 631.918 C 1488.42 631.127 1495.57 625.298 1496.84 624.234 C 1498.46 622.064 1508.81 612.058 1511.51 609.339 L 1546.93 573.808 C 1578.18 542.478 1608.34 510.826 1642.16 482.23 C 1658.96 467.689 1675.13 446.497 1691.97 432.601 C 1736.24 396.062 1772.08 351.373 1816.31 314.98 C 1827.3 305.945 1839.63 289.458 1850.39 281.447 C 1870.1 266.769 1886.83 245.064 1905.87 231.32 C 1926.87 213.902 1941.45 199.028 1944.98 170.396 C 1950.71 123.961 1913.38 81.5529 1867.63 77.3403 C 1846.4 75.3845 1820.06 84.7509 1804.45 99.6195 C 1780.89 121.797 1759.93 148.333 1738.24 172.479 L 1603.53 321.556 C 1591.27 335.042 1576.59 348.214 1563.95 361.722 L 1441.51 494.175 L 1393.32 545.761 C 1380.17 559.929 1365.28 573.462 1355.52 590.457 C 1353.24 594.43 1352.56 600.658 1352.18 605.227 C 1351.12 621.466 1353.88 638.91 1365.48 651.162 C 1375.98 662.72 1387.56 669.71 1403.39 670.437 C 1422.65 671.323 1437.33 668.826 1453.57 657.933 C 1455.67 656.525 1465.35 650.106 1467 649.57 z"/>
    <path fill="rgb(83, 122, 112)" d="M 865.591 1241.21 C 874.049 1230.43 879.749 1231.32 892.395 1233.22 C 902.595 1240.55 916.208 1256.35 912.075 1268.38 C 907.137 1282.75 879.3 1303.78 868.84 1316.67 C 867.355 1318.51 856.299 1330.78 855.645 1331.26 C 848.15 1340.83 827.535 1361.69 818.211 1369.84 C 813.313 1375.94 802.715 1386.58 796.82 1391.68 C 775.019 1410.58 739.25 1468.29 707.182 1462.54 C 697.923 1458.13 693.996 1454.89 688.053 1446.93 C 686.114 1438.38 686.773 1428.69 692.86 1421.96 C 696.064 1416.79 707.963 1404.71 712.63 1399.77 C 712.792 1399.05 713.402 1398.5 713.944 1397.81 C 719.255 1389.11 735.053 1374.69 742.803 1367.28 C 749.876 1358.99 759.428 1349.82 767.293 1340.87 C 772.742 1332.65 797.812 1308.14 806.02 1300.18 C 825.46 1281.35 845.832 1259.39 865.591 1241.21 z"/>
    <path fill="rgb(138, 166, 150)" d="M 767.293 1340.87 C 772.742 1332.65 797.812 1308.14 806.02 1300.18 C 825.46 1281.35 845.832 1259.39 865.591 1241.21 L 866.243 1243.46 C 860.425 1253.62 782.412 1330.88 770.247 1341.31 C 768.088 1341.56 769.063 1341.76 767.293 1340.87 z"/>
    <path fill="rgb(138, 166, 150)" d="M 818.211 1369.84 L 818.553 1367.02 C 825.002 1360.28 847.983 1329.55 855.645 1331.26 C 848.15 1340.83 827.535 1361.69 818.211 1369.84 z"/>
    <path fill="rgb(117, 150, 136)" d="M 742.803 1367.28 L 744.247 1369.54 C 741.474 1374.91 722.193 1394.33 716.94 1397.82 L 713.944 1397.81 C 719.255 1389.11 735.053 1374.69 742.803 1367.28 z"/>
    <path fill="rgb(138, 166, 150)" d="M 688.053 1446.93 L 689.61 1444.38 C 690.887 1445.41 694.394 1448.37 695.111 1449.58 C 698.257 1454.92 711.763 1457.9 713.589 1461.52 L 707.182 1462.54 C 697.923 1458.13 693.996 1454.89 688.053 1446.93 z"/>
    <path fill="rgb(117, 150, 136)" d="M 692.86 1421.96 C 696.064 1416.79 707.963 1404.71 712.63 1399.77 C 712.233 1410.52 701.606 1415.69 694.431 1422.24 L 692.86 1421.96 z"/>
    <path fill="rgb(83, 122, 112)" d="M 776.951 1176.39 C 783.81 1168.85 790.112 1162.36 801.075 1161.87 C 821.344 1160.95 838.273 1187.87 826.295 1205.09 C 819.892 1214.29 808.819 1221.72 801.278 1230.05 C 798.269 1233.15 788.099 1246.68 785.849 1248.15 C 775.027 1262.02 751.819 1283.22 738.807 1296.62 C 731.723 1303.91 710.528 1325.74 703.373 1331.57 C 690.863 1347.1 646.947 1389.98 629.391 1395.14 C 617.897 1395.61 605.942 1388.32 603.342 1376.68 C 601.562 1368.71 604.509 1364.62 608.533 1358.21 C 609.078 1356.84 609.363 1356.81 610.406 1355.62 C 619.199 1341.13 636.258 1325.87 647.066 1312.77 C 668.262 1287.08 691.828 1264.41 715.778 1241.24 C 718.384 1237.23 731.355 1224.18 735.247 1219.86 C 742.726 1208.89 766.436 1186.69 776.951 1176.39 z"/>
    <path fill="rgb(117, 150, 136)" d="M 715.778 1241.24 L 717.511 1243.57 C 715.376 1248.21 667.275 1295.59 659.12 1302.99 C 655.867 1305.94 652.476 1312.24 649.125 1315.76 C 644.595 1320.52 639.744 1326.56 634.678 1331.22 C 626.435 1338.81 621.278 1350.7 611.362 1355.52 C 611.043 1355.56 610.725 1355.59 610.406 1355.62 C 619.199 1341.13 636.258 1325.87 647.066 1312.77 C 668.262 1287.08 691.828 1264.41 715.778 1241.24 z"/>
    <path fill="rgb(117, 150, 136)" d="M 703.373 1331.57 L 702.699 1330.24 C 704.873 1328.17 706.276 1326.8 707.72 1324.7 C 715.36 1313.58 776.365 1250.68 783.831 1247.17 L 785.849 1248.15 C 775.027 1262.02 751.819 1283.22 738.807 1296.62 C 731.723 1303.91 710.528 1325.74 703.373 1331.57 z"/>
    <path fill="rgb(138, 166, 150)" d="M 776.951 1176.39 L 778.423 1178.02 C 776.15 1183.43 741.158 1219.45 736.319 1221.17 L 735.247 1219.86 C 742.726 1208.89 766.436 1186.69 776.951 1176.39 z"/>
    <path fill="rgb(117, 150, 136)" d="M 608.533 1358.21 C 614.826 1369.72 593.256 1378.94 625.471 1390.74 C 627.9 1391.63 628.829 1392.66 629.391 1395.14 C 617.897 1395.61 605.942 1388.32 603.342 1376.68 C 601.562 1368.71 604.509 1364.62 608.533 1358.21 z"/>
    <path fill="rgb(83, 122, 112)" d="M 708.916 1094.19 C 713.78 1090.79 718.829 1088.41 724.628 1090.3 C 742.784 1096.22 748.939 1113.39 748.162 1129.71 C 734.289 1146.27 713.694 1164.15 698.67 1180.22 C 696.217 1182.84 676.169 1202.88 674.092 1204.32 L 621.608 1257.11 C 616.601 1262.12 600.331 1278.93 595.814 1282.28 C 591.841 1286.22 586.947 1289.72 582.633 1293.28 C 568.93 1304.57 549.41 1301.75 548.398 1281.43 C 547.414 1261.67 558.44 1247.93 570.575 1233.79 C 575.849 1226.82 587.143 1216.35 593.727 1209.95 C 595.007 1207.38 597.339 1205.02 599.256 1202.82 C 608.103 1189.06 695.001 1103.83 708.916 1094.19 z"/>
    <path fill="rgb(138, 166, 150)" d="M 708.916 1094.19 C 708.714 1095.4 708.47 1096.85 708.184 1098.56 C 702.703 1103.1 696.134 1109.69 691.231 1114.46 C 671.554 1133.37 652.228 1152.64 633.264 1172.27 C 628.182 1177.54 605.308 1202.3 600.871 1203.68 L 599.256 1202.82 C 608.103 1189.06 695.001 1103.83 708.916 1094.19 z"/>
    <path fill="rgb(117, 150, 136)" d="M 595.814 1282.28 C 593.606 1283.02 594.013 1282.9 591.727 1283.21 L 591.564 1282.1 C 597.542 1273.93 664.955 1206.46 672.83 1201.72 L 674.092 1204.32 L 621.608 1257.11 C 616.601 1262.12 600.331 1278.93 595.814 1282.28 z"/>
    <path fill="rgb(117, 150, 136)" d="M 570.575 1233.79 C 575.849 1226.82 587.143 1216.35 593.727 1209.95 C 592.834 1216.8 578.135 1231.24 571.417 1234.28 L 570.575 1233.79 z"/>
    <path fill="rgb(83, 122, 112)" d="M 932.84 1324.26 C 953.106 1304.89 971.015 1289.32 987.282 1324.84 C 996.42 1344.8 979.441 1353.22 968.47 1367.05 C 959.297 1377.69 940.615 1401 929.666 1408.21 C 918.594 1419.44 896.593 1442.82 885.369 1451.62 C 864.045 1471.76 831.459 1493.24 801.119 1494.35 C 795.482 1494.56 786.741 1492.33 787.567 1485.57 C 788.605 1477.07 799.837 1461.89 805.452 1455.8 C 810.124 1448.89 815.675 1443.37 821.789 1437.78 C 823.362 1435.35 840.65 1418.67 843.72 1415.52 C 863.441 1395.29 884.522 1376.32 902.858 1354.79 C 909.366 1345.04 923.812 1331.8 932.84 1324.26 z"/>
    <path fill="rgb(138, 166, 150)" d="M 885.369 1451.62 L 884.736 1450.31 C 887.859 1442.71 921.691 1407.78 928.457 1406.33 L 929.666 1408.21 C 918.594 1419.44 896.593 1442.82 885.369 1451.62 z"/>
    <path fill="rgb(138, 166, 150)" d="M 932.84 1324.26 L 934.223 1326.03 C 930.102 1332.34 912.073 1350.69 905.733 1354.72 L 902.858 1354.79 C 909.366 1345.04 923.812 1331.8 932.84 1324.26 z"/>
    <path fill="rgb(117, 150, 136)" d="M 805.452 1455.8 C 810.124 1448.89 815.675 1443.37 821.789 1437.78 C 821.712 1444.53 813.466 1452.87 807.968 1456.48 C 807.367 1456.34 805.917 1456.07 805.452 1455.8 z"/>
    <path fill="rgb(83, 122, 112)" d="M 1840.34 132.193 C 1850.56 131.548 1861.21 131.225 1870.5 136.04 C 1883.14 142.463 1894.46 156.95 1894.08 171.656 C 1893.58 190.948 1878.1 209.706 1859.9 214.958 C 1837.37 218.929 1819.61 208.02 1806.66 190.273 C 1803.43 162.363 1809.95 139.494 1840.34 132.193 z"/>
    <path fill="rgb(138, 166, 150)" d="M 1905.87 231.32 C 1907.64 233.18 1907.97 232.817 1908.24 234.621 L 1907.36 235.284 C 1893.8 245.699 1883.24 257.668 1871.2 268.423 C 1838.63 297.531 1806.99 328.698 1775.52 359.127 L 1641.65 488.728 C 1637.98 492.316 1631.77 496.275 1626.85 500.99 C 1615.02 512.317 1603.35 523.678 1591.71 535.195 L 1519.18 606.859 C 1514.78 611.125 1499.12 627.673 1496.18 629.968 L 1494.66 629.462 C 1495.32 627.033 1495.74 626.469 1496.84 624.234 C 1498.46 622.064 1508.81 612.058 1511.51 609.339 L 1546.93 573.808 C 1578.18 542.478 1608.34 510.826 1642.16 482.23 C 1658.96 467.689 1675.13 446.497 1691.97 432.601 C 1736.24 396.062 1772.08 351.373 1816.31 314.98 C 1827.3 305.945 1839.63 289.458 1850.39 281.447 C 1870.1 266.769 1886.83 245.064 1905.87 231.32 z"/>
    <path fill="rgb(138, 166, 150)" d="M 1349.87 737.298 L 1352.57 736.25 L 1353.82 736.961 C 1352.62 744.087 1314.22 777.373 1306.28 785.249 C 1289.9 801.55 1273.42 817.755 1256.85 833.863 C 1247.68 842.918 1237.19 854.104 1227.8 862.513 C 1227.07 862.365 1225.92 862.196 1225.28 861.928 C 1233.65 850.218 1254.04 830.959 1265.04 819.97 C 1280.76 804.895 1295.74 788.352 1311.79 773.682 C 1325.35 761.293 1339.04 753.131 1349.87 737.298 z"/>
    <path fill="rgb(117, 150, 136)" d="M 1046.83 1390.45 C 1047.2 1392.49 1047.36 1394.63 1045.93 1396.36 C 1032.62 1412.37 978.015 1467.04 961.924 1472.33 L 960.44 1471.84 C 966.512 1466.63 972.767 1461.62 978.863 1456.44 C 1002.74 1436.13 1025 1413 1046.83 1390.45 z"/>
    <path fill="rgb(138, 166, 150)" d="M 1149.44 816.532 C 1149.47 814.9 1150.44 811.963 1151.59 810.935 C 1162.98 800.808 1209.47 746.535 1220.72 745.162 C 1213.78 754.689 1158.31 810.834 1149.44 816.532 z"/>
    <path fill="rgb(117, 150, 136)" d="M 628.411 1064.63 L 627.881 1063.69 L 628.917 1060.79 L 628.267 1061.06 C 630.227 1056.19 666.686 1019.07 674.134 1015.15 C 676.144 1014.09 675.408 1014.46 677.795 1015.25 C 663.088 1030.75 644.066 1050.2 628.411 1064.63 z"/>
    <path fill="rgb(117, 150, 136)" d="M 1216.11 872.835 C 1219.59 870.259 1221.31 868.853 1224.42 865.852 L 1225.05 867.053 C 1221.79 872.984 1197.49 897.419 1189.22 909.442 L 1186.25 906.901 C 1196.24 894.405 1203.92 883.345 1216.11 872.835 z"/>
    <path fill="rgb(83, 122, 112)" d="M 1467 649.57 C 1474.04 643.276 1480.24 637.732 1487.73 631.918 L 1489.01 634.164 C 1487.7 638.242 1476.92 646.307 1472.9 648.917 C 1471.74 649.668 1468.49 649.556 1467 649.57 z"/>
    <path fill="rgb(117, 150, 136)" d="M 1062.93 1370.25 L 1064.46 1372.04 C 1062.23 1377.25 1058.66 1383.16 1053.19 1385.37 L 1051.35 1384.84 C 1054.63 1379.9 1059.09 1374.85 1062.93 1370.25 z"/>
  </g>
</svg>
