<svg id="splitsvg" version="1.1" xmlns="http://www.w3.org/2000/svg" xmlns:xlink="http://www.w3.org/1999/xlink" width="1380" height="860"><g id="svgg"><path id="path0" d="M204.102 73.290 C 203.457 73.361,199.678 73.596,195.703 73.812 C 152.215 76.180,117.568 83.183,95.703 94.023 C 71.159 106.193,56.354 121.295,45.806 144.922 C 35.191 168.699,32.831 212.995,40.635 241.992 C 42.157 247.648,43.139 250.655,44.714 254.492 C 44.979 255.137,45.429 256.279,45.714 257.031 C 50.795 270.412,64.873 286.429,78.892 294.780 C 81.242 296.181,81.294 296.247,81.091 297.619 C 80.890 298.976,80.597 301.796,78.913 318.602 C 77.757 330.133,77.894 331.652,80.254 333.508 C 82.907 335.595,86.031 335.083,91.211 331.712 C 93.145 330.454,97.979 327.429,101.953 324.991 C 105.928 322.552,112.233 318.639,115.966 316.294 L 122.752 312.031 127.880 313.221 C 148.895 318.099,179.041 321.759,211.133 323.327 C 280.359 326.711,329.714 309.449,350.424 274.609 C 375.075 233.139,372.173 170.298,343.760 130.319 C 319.059 95.562,279.806 75.848,230.567 73.468 C 224.398 73.170,206.300 73.048,204.102 73.290 M277.845 109.127 C 279.234 109.716,289.733 120.253,290.997 122.325 C 292.132 124.188,292.081 127.213,290.885 128.949 C 290.041 130.174,283.883 136.321,271.289 148.507 C 268.496 151.210,256.367 162.948,244.336 174.593 C 232.305 186.238,222.271 195.847,222.039 195.946 C 221.605 196.132,220.164 194.749,208.887 183.332 C 201.333 175.684,201.719 176.534,204.590 173.867 C 205.825 172.720,209.121 169.557,211.914 166.839 C 214.707 164.121,222.441 156.628,229.102 150.187 C 250.210 129.774,252.317 127.725,261.426 118.750 C 272.252 108.082,273.566 107.312,277.845 109.127 M271.683 123.150 C 267.354 127.368,266.914 128.693,269.111 130.889 C 270.665 132.444,272.196 132.405,274.101 130.762 C 280.676 125.090,281.723 123.069,279.327 120.673 C 277.209 118.555,275.996 118.948,271.683 123.150 M210.333 188.952 L 216.955 195.691 215.863 196.830 C 213.478 199.320,212.992 199.061,205.535 191.336 C 199.441 185.023,199.239 184.611,201.222 182.566 C 202.736 181.003,202.047 180.520,210.333 188.952 M208.594 199.036 C 208.594 199.265,205.087 202.906,200.802 207.129 C 191.107 216.681,190.056 219.219,192.800 226.456 C 202.094 250.963,190.672 276.474,166.992 284.100 C 139.516 292.948,112.078 272.895,112.115 243.992 C 112.155 213.261,144.087 193.076,172.427 205.867 C 178.235 208.489,182.253 206.644,191.987 196.889 L 199.404 189.455 203.999 194.038 C 206.526 196.558,208.594 198.808,208.594 199.036 M157.377 218.622 C 154.086 221.825,153.578 223.056,155.011 224.354 C 156.209 225.437,157.383 225.111,159.793 223.023 C 163.666 219.668,164.473 217.281,162.154 216.039 C 160.869 215.352,160.575 215.510,157.377 218.622 M133.562 223.469 C 128.037 228.989,127.724 229.635,129.747 231.348 C 131.111 232.502,131.603 232.198,136.979 226.874 C 142.481 221.426,143.049 220.432,141.473 219.006 C 139.877 217.561,138.956 218.081,133.562 223.469 M168.046 226.695 C 162.992 231.807,162.730 232.297,164.240 233.807 C 165.895 235.462,167.341 234.605,173.340 228.419 C 176.748 224.904,177.230 223.772,175.848 222.521 C 174.170 221.003,173.116 221.567,168.046 226.695 M143.101 232.500 C 137.760 237.780,137.135 239.075,139.255 240.464 C 140.824 241.492,141.725 240.936,146.782 235.821 C 151.852 230.692,152.114 230.203,150.604 228.693 C 148.948 227.038,148.286 227.373,143.101 232.500 M177.652 235.717 C 176.174 236.845,173.720 239.523,172.926 240.873 C 172.451 241.682,173.461 243.741,174.456 243.991 C 177.373 244.723,183.418 237.250,181.348 235.471 C 180.037 234.346,179.391 234.389,177.652 235.717 M152.504 241.862 C 147.360 246.906,146.677 248.183,148.270 249.777 C 149.701 251.208,150.765 250.615,155.768 245.600 C 160.982 240.373,161.624 239.080,159.679 237.717 C 158.125 236.629,157.434 237.029,152.504 241.862 M129.060 246.550 C 125.661 249.846,125.196 251.844,127.614 252.763 C 130.686 253.931,137.209 245.657,134.401 244.154 C 132.861 243.330,131.967 243.732,129.060 246.550 M161.386 251.768 C 156.273 256.957,155.839 257.845,157.713 259.277 C 159.267 260.464,160.212 259.918,165.143 254.975 C 170.183 249.922,170.737 248.906,169.208 247.521 C 167.537 246.009,166.514 246.565,161.386 251.768 M136.461 257.890 C 131.120 263.170,130.494 264.465,132.614 265.854 C 134.170 266.874,135.063 266.332,140.002 261.373 C 144.958 256.396,145.645 255.031,143.873 253.687 C 142.286 252.484,141.448 252.959,136.461 257.890 M170.990 260.845 C 165.493 266.355,164.881 267.598,166.989 268.979 C 168.558 270.007,169.459 269.452,174.516 264.337 C 179.722 259.071,180.348 257.812,178.429 256.467 C 176.783 255.315,176.117 255.707,170.990 260.845 M147.571 265.593 C 144.434 268.785,144.101 269.525,145.139 271.007 C 146.717 273.259,153.906 268.254,153.906 264.903 C 153.906 261.495,151.321 261.777,147.571 265.593  M -25 0 L -5 0 L -5 20 L -25 20 Z M 405 0 L 425 0 L 425 20 L 405 20 Z" stroke="none" fill="#748b75" fill-rule="evenodd" transform="translate(30,0)"></path><path id="path1" d="M0.000 200.000 L 0.000 400.000 200.000 400.000 L 400.000 400.000 400.000 200.000 L 400.000 0.000 200.000 0.000 L 0.000 0.000 0.000 200.000 M229.688 73.052 C 273.905 75.721,304.985 88.461,331.077 114.613 C 359.509 143.110,372.691 187.667,365.781 231.913 C 361.805 257.370,350.912 279.531,335.960 292.580 C 334.361 293.975,332.428 295.688,331.663 296.386 C 326.377 301.210,312.801 308.618,302.148 312.491 C 300.215 313.194,297.895 314.099,296.994 314.502 C 296.093 314.905,295.038 315.236,294.650 315.237 C 294.263 315.239,292.803 315.591,291.406 316.020 C 289.091 316.732,283.138 318.283,277.148 319.734 C 257.778 324.430,220.140 325.388,185.938 322.055 C 162.966 319.816,140.896 316.767,132.031 314.607 C 130.635 314.267,127.948 313.651,126.060 313.238 L 122.629 312.487 116.982 316.107 C 113.877 318.098,109.444 320.885,107.133 322.300 C 99.847 326.761,92.884 331.044,89.678 333.037 C 85.024 335.930,80.530 335.636,78.500 332.305 C 77.278 330.301,77.359 328.864,80.118 303.723 C 80.565 299.647,80.783 296.263,80.602 296.203 C 78.319 295.441,69.075 288.564,64.701 284.375 C 44.855 265.366,36.323 241.958,35.659 204.688 C 34.766 154.636,50.749 120.438,84.766 99.612 C 98.288 91.333,110.617 86.467,128.711 82.266 C 138.271 80.047,145.058 78.874,162.837 76.367 C 169.762 75.391,185.170 74.041,200.391 73.078 C 207.602 72.621,222.332 72.608,229.688 73.052 M271.634 109.730 C 270.965 110.138,266.219 114.585,261.087 119.611 C 255.956 124.638,243.497 136.740,233.401 146.504 C 223.305 156.269,212.230 167.018,208.791 170.392 L 202.539 176.526 212.102 186.117 C 217.361 191.392,221.780 195.663,221.922 195.608 C 222.197 195.501,235.904 182.345,247.458 171.099 C 251.323 167.336,257.034 161.797,260.148 158.789 C 273.420 145.972,277.526 141.985,284.143 135.489 L 291.138 128.623 291.313 126.507 C 291.576 123.334,290.916 122.264,284.764 115.897 C 277.738 108.625,275.313 107.486,271.634 109.730 M279.531 120.469 C 281.638 122.575,281.429 124.066,278.613 127.038 C 273.313 132.632,271.290 133.478,268.906 131.094 C 266.713 128.901,266.975 127.506,270.215 124.127 C 275.316 118.805,277.148 118.086,279.531 120.469 M201.450 182.726 C 199.570 184.689,199.831 185.156,206.597 191.921 C 213.369 198.693,213.450 198.736,215.611 196.645 L 216.573 195.714 209.541 188.667 L 202.510 181.620 201.450 182.726 M191.987 197.280 C 181.293 207.999,179.212 208.762,170.058 205.319 C 141.580 194.606,112.205 214.683,112.402 244.727 C 112.568 270.086,135.048 289.216,160.156 285.364 C 186.913 281.258,202.338 254.341,192.975 228.094 C 189.638 218.741,190.403 216.644,200.830 206.562 C 204.885 202.642,208.203 199.251,208.203 199.027 C 208.203 198.803,206.223 196.646,203.804 194.233 L 199.404 189.846 191.987 197.280 M162.260 215.676 C 164.947 216.900,164.415 219.148,160.583 222.764 C 157.528 225.645,156.154 226.075,154.688 224.609 C 153.233 223.155,153.657 221.838,156.543 218.843 C 160.027 215.228,160.591 214.915,162.260 215.676 M141.797 218.750 C 143.443 220.396,142.945 221.334,137.578 226.710 C 131.748 232.548,131.618 232.641,130.178 231.950 C 126.961 230.409,127.590 228.763,133.689 222.754 C 138.954 217.567,140.065 217.018,141.797 218.750 M176.172 222.266 C 177.743 223.837,177.267 224.801,172.559 229.585 C 166.651 235.588,164.601 236.389,163.283 233.207 C 162.661 231.705,162.784 231.527,168.210 226.110 C 173.248 221.079,174.420 220.514,176.172 222.266 M150.661 227.874 C 152.621 229.834,152.117 230.904,146.677 236.331 C 141.376 241.619,140.184 242.199,138.611 240.256 C 137.225 238.544,137.629 237.659,141.699 233.489 C 147.176 227.879,149.321 226.535,150.661 227.874 M181.814 235.243 C 183.015 236.958,182.609 238.082,179.675 241.171 C 176.105 244.929,173.257 245.414,172.498 242.393 C 171.622 238.901,179.917 232.535,181.814 235.243 M160.254 237.815 C 161.920 239.246,161.245 240.502,155.963 245.795 C 150.624 251.146,149.689 251.643,148.047 250.000 C 146.294 248.247,146.862 247.069,151.855 242.101 C 157.343 236.641,158.311 236.147,160.254 237.815 M134.965 244.146 C 137.694 247.161,129.513 255.210,126.496 252.479 C 124.956 251.086,125.531 249.597,128.861 246.357 C 132.220 243.088,133.567 242.600,134.965 244.146 M169.516 247.339 C 171.117 249.058,170.681 249.869,165.298 255.195 C 159.955 260.483,159.196 260.890,157.400 259.436 C 155.420 257.833,156.020 256.620,161.418 251.311 C 166.773 246.045,167.828 245.527,169.516 247.339 M144.162 253.455 C 146.143 255.058,145.550 256.235,139.977 261.763 C 134.618 267.079,134.058 267.386,132.279 265.987 C 130.181 264.337,130.681 263.298,136.247 257.731 C 141.583 252.396,142.346 251.984,144.162 253.455 M178.658 256.278 C 180.803 257.965,180.286 259.015,174.479 264.765 C 169.268 269.925,168.658 270.312,167.064 269.473 C 164.268 268.001,164.862 266.596,170.795 260.650 C 176.281 255.153,176.836 254.845,178.658 256.278 M153.268 262.919 C 155.125 264.380,154.719 265.671,151.299 269.185 C 147.861 272.718,146.470 273.168,144.950 271.236 C 143.619 269.544,143.916 268.830,147.388 265.357 C 150.861 261.884,151.576 261.588,153.268 262.919  M -25 0 L -5 0 L -5 20 L -25 20 Z M 405 0 L 425 0 L 425 20 L 405 20 Z" stroke="none" fill="#f0f0f0" fill-rule="evenodd" transform="translate(490,0)"></path><path id="path2" d="M210.277 72.948 C 213.244 73.015,217.990 73.015,220.824 72.948 C 223.658 72.881,221.230 72.827,215.430 72.827 C 209.629 72.827,207.310 72.882,210.277 72.948 M199.121 73.323 C 199.604 73.416,200.396 73.416,200.879 73.323 C 201.362 73.229,200.967 73.153,200.000 73.153 C 199.033 73.153,198.638 73.229,199.121 73.323 M229.987 73.330 C 230.690 73.417,231.744 73.415,232.331 73.326 C 232.918 73.237,232.344 73.166,231.055 73.168 C 229.766 73.170,229.285 73.243,229.987 73.330 M192.480 73.713 C 192.964 73.806,193.755 73.806,194.238 73.713 C 194.722 73.620,194.326 73.544,193.359 73.544 C 192.393 73.544,191.997 73.620,192.480 73.713 M236.035 73.707 C 236.411 73.805,237.026 73.805,237.402 73.707 C 237.778 73.609,237.471 73.528,236.719 73.528 C 235.967 73.528,235.659 73.609,236.035 73.707 M187.207 74.097 C 187.583 74.196,188.198 74.196,188.574 74.097 C 188.950 73.999,188.643 73.919,187.891 73.919 C 187.139 73.919,186.831 73.999,187.207 74.097 M240.723 74.097 C 241.099 74.196,241.714 74.196,242.090 74.097 C 242.466 73.999,242.158 73.919,241.406 73.919 C 240.654 73.919,240.347 73.999,240.723 74.097 M182.129 74.488 C 182.505 74.586,183.120 74.586,183.496 74.488 C 183.872 74.390,183.564 74.309,182.813 74.309 C 182.061 74.309,181.753 74.390,182.129 74.488 M177.832 74.879 C 178.208 74.977,178.823 74.977,179.199 74.879 C 179.575 74.780,179.268 74.700,178.516 74.700 C 177.764 74.700,177.456 74.780,177.832 74.879 M169.238 75.660 C 169.614 75.758,170.229 75.758,170.605 75.660 C 170.981 75.562,170.674 75.481,169.922 75.481 C 169.170 75.481,168.862 75.562,169.238 75.660 M277.344 81.575 C 277.666 81.774,278.369 82.054,278.906 82.198 C 279.585 82.380,279.704 82.349,279.297 82.097 C 278.975 81.898,278.271 81.618,277.734 81.474 C 277.056 81.292,276.937 81.323,277.344 81.575 M281.641 83.137 C 281.963 83.336,282.666 83.617,283.203 83.760 C 283.882 83.942,284.001 83.911,283.594 83.660 C 283.271 83.461,282.568 83.180,282.031 83.036 C 281.353 82.855,281.233 82.886,281.641 83.137 M291.829 87.258 C 292.228 87.621,296.094 89.446,296.094 89.271 C 296.094 89.051,292.363 87.109,291.940 87.109 C 291.790 87.109,291.740 87.176,291.829 87.258 M99.609 91.602 C 99.072 91.909,98.809 92.160,99.023 92.160 C 99.238 92.160,99.854 91.909,100.391 91.602 C 100.928 91.295,101.191 91.043,100.977 91.043 C 100.762 91.043,100.146 91.295,99.609 91.602 M273.730 108.869 C 274.214 108.963,275.005 108.963,275.488 108.869 C 275.972 108.776,275.576 108.700,274.609 108.700 C 273.643 108.700,273.247 108.776,273.730 108.869 M69.318 111.035 L 67.773 112.695 69.434 111.151 C 70.978 109.715,71.273 109.375,70.978 109.375 C 70.914 109.375,70.167 110.122,69.318 111.035 M327.930 111.719 C 328.988 112.793,329.941 113.672,330.049 113.672 C 330.156 113.672,329.378 112.793,328.320 111.719 C 327.262 110.645,326.309 109.766,326.201 109.766 C 326.094 109.766,326.872 110.645,327.930 111.719 M333.008 116.797 C 334.500 118.301,335.809 119.531,335.917 119.531 C 336.024 119.531,334.891 118.301,333.398 116.797 C 331.906 115.293,330.597 114.063,330.490 114.063 C 330.382 114.063,331.515 115.293,333.008 116.797 M62.290 118.066 L 60.352 120.117 62.402 118.179 C 63.530 117.113,64.453 116.190,64.453 116.128 C 64.453 115.836,64.091 116.161,62.290 118.066 M276.270 119.410 C 276.646 119.508,277.261 119.508,277.637 119.410 C 278.013 119.312,277.705 119.231,276.953 119.231 C 276.201 119.231,275.894 119.312,276.270 119.410 M287.891 119.263 C 287.891 119.330,288.462 119.901,289.160 120.532 L 290.430 121.680 289.282 120.410 C 288.213 119.227,287.891 118.961,287.891 119.263 M59.339 121.387 C 57.666 123.253,56.904 124.219,57.105 124.219 C 57.212 124.219,58.041 123.340,58.946 122.266 C 60.688 120.200,60.971 119.567,59.339 121.387 M270.889 123.535 L 267.773 126.758 270.996 123.642 C 273.989 120.748,274.397 120.313,274.112 120.313 C 274.053 120.313,272.603 121.763,270.889 123.535 M254.875 125.488 L 250.977 129.492 254.980 125.593 C 257.183 123.449,258.984 121.647,258.984 121.589 C 258.984 121.307,258.497 121.769,254.875 125.488 M291.505 125.586 C 291.509 126.445,291.589 126.751,291.683 126.265 C 291.776 125.779,291.772 125.076,291.675 124.702 C 291.577 124.329,291.500 124.727,291.505 125.586 M277.344 127.930 C 275.743 129.541,274.522 130.859,274.629 130.859 C 274.736 130.859,276.134 129.541,277.734 127.930 C 279.335 126.318,280.557 125.000,280.449 125.000 C 280.342 125.000,278.944 126.318,277.344 127.930 M286.906 132.910 L 283.398 136.523 287.012 133.016 C 290.368 129.758,290.803 129.297,290.519 129.297 C 290.461 129.297,288.835 130.923,286.906 132.910 M241.398 138.574 L 238.086 141.992 241.504 138.680 C 243.384 136.859,244.922 135.321,244.922 135.263 C 244.922 134.978,244.473 135.400,241.398 138.574 M350.195 140.234 C 350.529 140.879,350.889 141.406,350.997 141.406 C 351.104 141.406,350.919 140.879,350.586 140.234 C 350.253 139.590,349.892 139.063,349.785 139.063 C 349.677 139.063,349.862 139.590,350.195 140.234 M274.405 145.020 L 271.289 148.242 274.512 145.126 C 277.505 142.232,277.912 141.797,277.628 141.797 C 277.569 141.797,276.119 143.247,274.405 145.020 M353.787 147.065 C 354.145 147.815,354.506 148.358,354.591 148.274 C 354.770 148.095,353.584 145.703,353.317 145.703 C 353.218 145.703,353.430 146.316,353.787 147.065 M228.704 150.879 L 224.414 155.273 228.809 150.983 C 231.226 148.624,233.203 146.646,233.203 146.589 C 233.203 146.307,232.689 146.797,228.704 150.879 M262.500 156.445 C 260.899 158.057,259.678 159.375,259.785 159.375 C 259.893 159.375,261.290 158.057,262.891 156.445 C 264.491 154.834,265.713 153.516,265.605 153.516 C 265.498 153.516,264.101 154.834,262.500 156.445 M358.036 157.031 C 358.180 157.568,358.461 158.271,358.660 158.594 C 358.911 159.001,358.942 158.882,358.760 158.203 C 358.617 157.666,358.336 156.963,358.137 156.641 C 357.886 156.233,357.855 156.353,358.036 157.031 M216.980 162.207 L 214.648 164.648 217.090 162.317 C 218.433 161.035,219.531 159.936,219.531 159.876 C 219.531 159.587,219.146 159.939,216.980 162.207 M250.384 168.262 L 246.289 172.461 250.488 168.366 C 254.389 164.563,254.865 164.063,254.583 164.063 C 254.525 164.063,252.636 165.952,250.384 168.262 M205.460 173.340 L 202.148 176.758 205.566 173.446 C 207.446 171.625,208.984 170.087,208.984 170.028 C 208.984 169.744,208.536 170.165,205.460 173.340 M238.462 179.785 L 236.523 181.836 238.574 179.897 C 240.480 178.096,240.804 177.734,240.513 177.734 C 240.451 177.734,239.528 178.657,238.462 179.785 M36.419 182.422 C 36.419 183.174,36.499 183.481,36.597 183.105 C 36.696 182.729,36.696 182.114,36.597 181.738 C 36.499 181.362,36.419 181.670,36.419 182.422 M214.258 188.672 C 218.336 192.754,221.760 196.094,221.867 196.094 C 221.975 196.094,218.726 192.754,214.648 188.672 C 210.571 184.590,207.146 181.250,207.039 181.250 C 206.932 181.250,210.180 184.590,214.258 188.672 M36.028 185.938 C 36.028 186.689,36.109 186.997,36.207 186.621 C 36.305 186.245,36.305 185.630,36.207 185.254 C 36.109 184.878,36.028 185.186,36.028 185.938 M226.556 191.309 L 222.461 195.508 226.660 191.413 C 230.560 187.610,231.037 187.109,230.755 187.109 C 230.697 187.109,228.808 188.999,226.556 191.309 M206.836 192.578 C 209.623 195.371,211.991 197.656,212.098 197.656 C 212.206 197.656,210.013 195.371,207.227 192.578 C 204.440 189.785,202.072 187.500,201.964 187.500 C 201.857 187.500,204.049 189.785,206.836 192.578 M35.659 191.602 C 35.662 192.676,35.737 193.069,35.827 192.475 C 35.917 191.881,35.915 191.002,35.822 190.522 C 35.729 190.042,35.656 190.527,35.659 191.602 M202.148 192.578 C 203.641 194.082,204.950 195.313,205.057 195.313 C 205.165 195.313,204.031 194.082,202.539 192.578 C 201.047 191.074,199.738 189.844,199.630 189.844 C 199.523 189.844,200.656 191.074,202.148 192.578 M366.888 196.094 C 366.888 196.846,366.968 197.153,367.066 196.777 C 367.164 196.401,367.164 195.786,367.066 195.410 C 366.968 195.034,366.888 195.342,366.888 196.094 M367.316 203.320 C 367.317 204.824,367.388 205.392,367.473 204.581 C 367.557 203.771,367.556 202.540,367.469 201.847 C 367.383 201.153,367.314 201.816,367.316 203.320 M152.637 202.236 C 153.335 202.322,154.478 202.322,155.176 202.236 C 155.874 202.149,155.303 202.078,153.906 202.078 C 152.510 202.078,151.938 202.149,152.637 202.236 M185.526 203.418 L 184.180 204.883 185.645 203.537 C 187.008 202.284,187.289 201.953,186.991 201.953 C 186.925 201.953,186.266 202.612,185.526 203.418 M197.257 210.059 L 193.945 213.477 197.363 210.165 C 200.538 207.089,200.959 206.641,200.675 206.641 C 200.617 206.641,199.078 208.179,197.257 210.059 M35.653 210.938 C 35.653 211.904,35.729 212.300,35.823 211.816 C 35.916 211.333,35.916 210.542,35.823 210.059 C 35.729 209.575,35.653 209.971,35.653 210.938 M367.313 212.109 C 367.313 213.506,367.383 214.077,367.470 213.379 C 367.557 212.681,367.557 211.538,367.470 210.840 C 367.383 210.142,367.313 210.713,367.313 212.109 M124.198 214.746 L 122.852 216.211 124.316 214.865 C 125.680 213.612,125.961 213.281,125.663 213.281 C 125.597 213.281,124.938 213.940,124.198 214.746 M157.010 218.262 L 155.664 219.727 157.129 218.380 C 158.492 217.127,158.773 216.797,158.475 216.797 C 158.410 216.797,157.751 217.456,157.010 218.262 M133.197 223.340 L 128.320 228.320 133.301 223.443 C 136.040 220.761,138.281 218.520,138.281 218.463 C 138.281 218.182,137.727 218.714,133.197 223.340 M160.926 222.168 L 158.398 224.805 161.035 222.277 C 163.484 219.929,163.850 219.531,163.563 219.531 C 163.503 219.531,162.316 220.718,160.926 222.168 M366.888 221.094 C 366.888 221.846,366.968 222.153,367.066 221.777 C 367.164 221.401,367.164 220.786,367.066 220.410 C 366.968 220.034,366.888 220.342,366.888 221.094 M171.477 230.371 L 167.383 234.570 171.582 230.476 C 175.482 226.673,175.959 226.172,175.677 226.172 C 175.619 226.172,173.729 228.062,171.477 230.371 M142.376 232.910 L 138.086 237.305 142.480 233.014 C 144.897 230.655,146.875 228.677,146.875 228.620 C 146.875 228.338,146.361 228.828,142.376 232.910 M174.987 237.793 L 172.852 240.039 175.098 237.904 C 176.333 236.730,177.344 235.719,177.344 235.658 C 177.344 235.368,176.970 235.706,174.987 237.793 M153.516 240.430 C 151.915 242.041,150.693 243.359,150.801 243.359 C 150.908 243.359,152.306 242.041,153.906 240.430 C 155.507 238.818,156.728 237.500,156.621 237.500 C 156.514 237.500,155.116 238.818,153.516 240.430 M178.895 241.699 L 176.367 244.336 179.004 241.808 C 180.454 240.418,181.641 239.231,181.641 239.171 C 181.641 238.884,181.243 239.250,178.895 241.699 M112.208 241.211 C 112.212 242.070,112.292 242.376,112.386 241.890 C 112.479 241.404,112.476 240.701,112.378 240.327 C 112.280 239.954,112.204 240.352,112.208 241.211 M195.831 243.555 C 195.833 245.059,195.904 245.626,195.988 244.816 C 196.073 244.005,196.071 242.775,195.985 242.081 C 195.899 241.388,195.830 242.051,195.831 243.555 M148.614 245.410 L 147.070 247.070 148.730 245.526 C 150.274 244.090,150.570 243.750,150.275 243.750 C 150.211 243.750,149.464 244.497,148.614 245.410 M133.771 248.926 L 132.227 250.586 133.887 249.042 C 135.431 247.606,135.726 247.266,135.431 247.266 C 135.367 247.266,134.620 248.013,133.771 248.926 M160.931 251.855 L 156.445 256.445 161.035 251.959 C 163.560 249.492,165.625 247.427,165.625 247.370 C 165.625 247.088,165.098 247.592,160.931 251.855 M132.791 261.230 L 131.445 262.695 132.910 261.349 C 134.274 260.096,134.555 259.766,134.256 259.766 C 134.191 259.766,133.532 260.425,132.791 261.230 M174.609 264.258 C 173.661 265.225,172.972 266.016,173.080 266.016 C 173.187 266.016,174.051 265.225,175.000 264.258 C 175.949 263.291,176.637 262.500,176.530 262.500 C 176.422 262.500,175.558 263.291,174.609 264.258 M152.514 267.676 L 151.367 268.945 152.637 267.798 C 153.820 266.729,154.086 266.406,153.784 266.406 C 153.717 266.406,153.146 266.978,152.514 267.676 M183.594 273.633 C 182.645 274.600,181.956 275.391,182.064 275.391 C 182.171 275.391,183.036 274.600,183.984 273.633 C 184.933 272.666,185.622 271.875,185.514 271.875 C 185.407 271.875,184.543 272.666,183.594 273.633 M59.570 279.297 C 60.409 280.156,61.184 280.859,61.291 280.859 C 61.399 280.859,60.800 280.156,59.961 279.297 C 59.122 278.438,58.347 277.734,58.240 277.734 C 58.132 277.734,58.731 278.438,59.570 279.297 M295.508 314.694 C 293.956 315.239,293.955 315.241,295.300 315.036 C 296.046 314.922,296.828 314.657,297.039 314.446 C 297.491 313.993,297.508 313.991,295.508 314.694 M132.617 314.826 C 133.367 315.165,135.459 315.387,135.124 315.091 C 135.034 315.012,134.258 314.840,133.398 314.709 C 132.309 314.544,132.073 314.579,132.617 314.826 M161.035 319.410 C 161.411 319.508,162.026 319.508,162.402 319.410 C 162.778 319.312,162.471 319.231,161.719 319.231 C 160.967 319.231,160.659 319.312,161.035 319.410 M190.923 322.542 C 191.408 322.635,192.112 322.632,192.485 322.534 C 192.858 322.436,192.461 322.360,191.602 322.364 C 190.742 322.368,190.437 322.448,190.923 322.542 M195.801 322.936 C 196.392 323.026,197.358 323.026,197.949 322.936 C 198.540 322.847,198.057 322.773,196.875 322.773 C 195.693 322.773,195.210 322.847,195.801 322.936 M202.441 323.331 C 203.247 323.416,204.565 323.416,205.371 323.331 C 206.177 323.247,205.518 323.178,203.906 323.178 C 202.295 323.178,201.636 323.247,202.441 323.331 M211.222 323.719 C 211.915 323.806,213.146 323.807,213.956 323.723 C 214.767 323.638,214.199 323.567,212.695 323.566 C 211.191 323.564,210.528 323.633,211.222 323.719 M244.043 323.713 C 244.526 323.806,245.317 323.806,245.801 323.713 C 246.284 323.620,245.889 323.544,244.922 323.544 C 243.955 323.544,243.560 323.620,244.043 323.713 M229.611 324.120 C 231.824 324.189,235.340 324.189,237.423 324.119 C 239.506 324.049,237.695 323.992,233.398 323.992 C 229.102 323.993,227.397 324.050,229.611 324.120 M77.841 325.781 C 77.841 326.748,77.917 327.144,78.010 326.660 C 78.103 326.177,78.103 325.386,78.010 324.902 C 77.917 324.419,77.841 324.814,77.841 325.781 M77.750 330.390 C 77.727 331.154,78.761 332.992,79.564 333.615 C 80.240 334.140,80.242 334.129,79.607 333.380 C 79.241 332.948,78.676 331.984,78.353 331.238 C 78.030 330.493,77.758 330.111,77.750 330.390 M83.496 335.041 C 83.979 335.134,84.771 335.134,85.254 335.041 C 85.737 334.948,85.342 334.872,84.375 334.872 C 83.408 334.872,83.013 334.948,83.496 335.041  M -25 0 L -5 0 L -5 20 L -25 20 Z M 405 0 L 425 0 L 425 20 L 405 20 Z" stroke="none" fill="#b6c1b9" fill-rule="evenodd" transform="translate(950,0)"></path><path id="path3" d="M66.016 114.258 C 65.067 115.225,64.378 116.016,64.486 116.016 C 64.593 116.016,65.457 115.225,66.406 114.258 C 67.355 113.291,68.044 112.500,67.936 112.500 C 67.829 112.500,66.964 113.291,66.016 114.258 M281.641 112.622 C 281.641 112.689,282.212 113.261,282.910 113.892 L 284.180 115.039 283.032 113.770 C 281.963 112.586,281.641 112.320,281.641 112.622 M260.924 119.434 L 258.789 121.680 261.035 119.545 C 263.122 117.561,263.460 117.188,263.170 117.188 C 263.109 117.188,262.098 118.198,260.924 119.434 M246.655 133.301 L 245.508 134.570 246.777 133.423 C 247.476 132.792,248.047 132.221,248.047 132.153 C 248.047 131.852,247.725 132.117,246.655 133.301 M234.552 145.020 L 233.008 146.680 234.668 145.136 C 236.212 143.700,236.508 143.359,236.212 143.359 C 236.148 143.359,235.401 144.106,234.552 145.020 M270.093 149.316 L 268.945 150.586 270.215 149.439 C 270.913 148.808,271.484 148.236,271.484 148.169 C 271.484 147.867,271.162 148.133,270.093 149.316 M210.135 168.652 L 208.789 170.117 210.254 168.771 C 211.617 167.518,211.898 167.188,211.600 167.188 C 211.535 167.188,210.876 167.847,210.135 168.652 M245.093 173.535 L 243.945 174.805 245.215 173.657 C 245.913 173.026,246.484 172.455,246.484 172.388 C 246.484 172.086,246.162 172.352,245.093 173.535 M195.099 193.848 L 193.555 195.508 195.215 193.964 C 196.759 192.528,197.055 192.188,196.759 192.188 C 196.695 192.188,195.948 192.935,195.099 193.848 M35.638 194.531 C 35.638 195.283,35.718 195.591,35.816 195.215 C 35.914 194.839,35.914 194.224,35.816 193.848 C 35.718 193.472,35.638 193.779,35.638 194.531 M188.061 200.879 L 186.914 202.148 188.184 201.001 C 188.882 200.370,189.453 199.799,189.453 199.732 C 189.453 199.430,189.131 199.696,188.061 200.879 M35.672 205.078 C 35.672 206.475,35.743 207.046,35.829 206.348 C 35.916 205.649,35.916 204.507,35.829 203.809 C 35.743 203.110,35.672 203.682,35.672 205.078 M367.286 207.227 C 367.290 208.086,367.370 208.392,367.464 207.906 C 367.557 207.420,367.554 206.717,367.456 206.343 C 367.358 205.970,367.282 206.367,367.286 207.227 M145.299 237.402 L 143.164 239.648 145.410 237.513 C 147.497 235.530,147.835 235.156,147.545 235.156 C 147.484 235.156,146.473 236.167,145.299 237.402 M163.071 257.129 L 161.133 259.180 163.184 257.241 C 164.312 256.175,165.234 255.252,165.234 255.190 C 165.234 254.899,164.872 255.223,163.071 257.129 M139.442 262.012 L 136.914 264.648 139.551 262.121 C 141.001 260.730,142.188 259.544,142.188 259.484 C 142.188 259.196,141.790 259.563,139.442 262.012 M171.463 267.480 L 170.117 268.945 171.582 267.599 C 172.945 266.346,173.226 266.016,172.928 266.016 C 172.863 266.016,172.204 266.675,171.463 267.480 M62.874 282.520 C 63.832 283.540,64.667 284.375,64.730 284.375 C 65.023 284.375,64.713 284.024,62.988 282.406 L 61.133 280.664 62.874 282.520 M77.833 328.711 C 77.837 329.570,77.917 329.876,78.011 329.390 C 78.104 328.904,78.101 328.201,78.003 327.827 C 77.905 327.454,77.829 327.852,77.833 328.711  M -25 0 L -5 0 L -5 20 L -25 20 Z M 405 0 L 425 0 L 425 20 L 405 20 Z" stroke="none" fill="#a4b0a3" fill-rule="evenodd" transform="translate(30,460)"></path><path id="path4" d="M225.688 73.323 C 226.174 73.417,226.877 73.413,227.251 73.315 C 227.624 73.217,227.227 73.141,226.367 73.145 C 225.508 73.150,225.202 73.230,225.688 73.323 M196.582 73.707 C 196.958 73.805,197.573 73.805,197.949 73.707 C 198.325 73.609,198.018 73.528,197.266 73.528 C 196.514 73.528,196.206 73.609,196.582 73.707 M267.578 112.695 C 265.978 114.307,264.756 115.625,264.863 115.625 C 264.971 115.625,266.368 114.307,267.969 112.695 C 269.569 111.084,270.791 109.766,270.684 109.766 C 270.576 109.766,269.179 111.084,267.578 112.695 M286.328 117.383 C 287.712 118.779,288.933 119.922,289.040 119.922 C 289.147 119.922,288.103 118.779,286.719 117.383 C 285.335 115.986,284.114 114.844,284.007 114.844 C 283.900 114.844,284.944 115.986,286.328 117.383 M250.571 129.395 L 248.633 131.445 250.684 129.507 C 252.589 127.706,252.914 127.344,252.622 127.344 C 252.560 127.344,251.637 128.267,250.571 129.395 M238.661 140.918 L 236.133 143.555 238.770 141.027 C 240.220 139.637,241.406 138.450,241.406 138.390 C 241.406 138.103,241.008 138.469,238.661 140.918 M278.310 141.504 L 275.586 144.336 278.418 141.612 C 279.976 140.114,281.250 138.839,281.250 138.780 C 281.250 138.493,280.840 138.874,278.310 141.504 M266.589 152.832 L 264.258 155.273 266.699 152.942 C 268.042 151.660,269.141 150.561,269.141 150.501 C 269.141 150.212,268.755 150.564,266.589 152.832 M224.210 154.980 L 220.898 158.398 224.316 155.087 C 226.196 153.265,227.734 151.727,227.734 151.669 C 227.734 151.385,227.286 151.806,224.210 154.980 M254.482 164.551 L 251.758 167.383 254.590 164.659 C 256.147 163.161,257.422 161.886,257.422 161.827 C 257.422 161.540,257.012 161.920,254.482 164.551 M214.051 164.746 L 211.523 167.383 214.160 164.855 C 215.610 163.465,216.797 162.278,216.797 162.218 C 216.797 161.931,216.399 162.297,214.051 164.746 M241.978 176.660 L 240.039 178.711 242.090 176.772 C 243.995 174.971,244.320 174.609,244.028 174.609 C 243.966 174.609,243.044 175.532,241.978 176.660 M203.125 177.466 C 203.125 177.533,203.696 178.104,204.395 178.736 L 205.664 179.883 204.517 178.613 C 203.447 177.430,203.125 177.164,203.125 177.466 M230.654 187.598 L 227.930 190.430 230.762 187.706 C 232.319 186.208,233.594 184.933,233.594 184.874 C 233.594 184.587,233.184 184.967,230.654 187.598 M36.049 190.430 C 36.052 191.504,36.128 191.897,36.218 191.303 C 36.308 190.709,36.305 189.831,36.212 189.350 C 36.120 188.870,36.046 189.355,36.049 190.430 M211.719 190.820 C 212.886 192.002,213.928 192.969,214.036 192.969 C 214.143 192.969,213.276 192.002,212.109 190.820 C 210.942 189.639,209.900 188.672,209.792 188.672 C 209.685 188.672,210.552 189.639,211.719 190.820 M35.688 199.219 C 35.688 201.260,35.754 202.095,35.834 201.074 C 35.914 200.054,35.914 198.384,35.834 197.363 C 35.754 196.343,35.688 197.178,35.688 199.219 M203.900 203.809 L 199.414 208.398 204.004 203.913 C 208.267 199.746,208.771 199.219,208.490 199.219 C 208.433 199.219,206.367 201.284,203.900 203.809 M175.879 206.910 C 176.255 207.008,176.870 207.008,177.246 206.910 C 177.622 206.812,177.314 206.731,176.563 206.731 C 175.811 206.731,175.503 206.812,175.879 206.910 M36.049 213.086 C 36.052 214.160,36.128 214.553,36.218 213.959 C 36.308 213.366,36.305 212.487,36.212 212.006 C 36.120 211.526,36.046 212.012,36.049 213.086 M366.888 216.797 C 366.888 217.549,366.968 217.856,367.066 217.480 C 367.164 217.104,367.164 216.489,367.066 216.113 C 366.968 215.737,366.888 216.045,366.888 216.797 M157.020 218.652 L 154.492 221.289 157.129 218.761 C 158.579 217.371,159.766 216.184,159.766 216.125 C 159.766 215.837,159.368 216.203,157.020 218.652 M191.518 221.289 C 191.521 222.363,191.597 222.756,191.687 222.163 C 191.776 221.569,191.774 220.690,191.681 220.209 C 191.589 219.729,191.515 220.215,191.518 221.289 M132.993 223.926 L 131.055 225.977 133.105 224.038 C 134.233 222.972,135.156 222.049,135.156 221.987 C 135.156 221.696,134.794 222.020,132.993 223.926 M139.063 224.805 C 137.462 226.416,136.240 227.734,136.348 227.734 C 136.455 227.734,137.853 226.416,139.453 224.805 C 141.054 223.193,142.275 221.875,142.168 221.875 C 142.061 221.875,140.663 223.193,139.063 224.805 M167.180 227.246 L 163.477 231.055 167.285 227.351 C 169.380 225.315,171.094 223.601,171.094 223.543 C 171.094 223.260,170.619 223.709,167.180 227.246 M133.771 230.176 L 132.227 231.836 133.887 230.292 C 135.431 228.856,135.726 228.516,135.431 228.516 C 135.367 228.516,134.620 229.263,133.771 230.176 M149.219 233.398 C 148.270 234.365,147.581 235.156,147.689 235.156 C 147.796 235.156,148.661 234.365,149.609 233.398 C 150.558 232.432,151.247 231.641,151.139 231.641 C 151.032 231.641,150.168 232.432,149.219 233.398 M159.155 242.285 L 158.008 243.555 159.277 242.407 C 160.461 241.338,160.726 241.016,160.425 241.016 C 160.357 241.016,159.786 241.587,159.155 242.285 M128.306 246.973 L 126.367 249.023 128.418 247.085 C 129.546 246.019,130.469 245.096,130.469 245.034 C 130.469 244.743,130.107 245.067,128.306 246.973 M137.292 256.738 L 134.961 259.180 137.402 256.848 C 139.670 254.682,140.022 254.297,139.734 254.297 C 139.673 254.297,138.575 255.396,137.292 256.738 M173.224 258.301 L 171.680 259.961 173.340 258.417 C 174.884 256.981,175.180 256.641,174.884 256.641 C 174.820 256.641,174.073 257.388,173.224 258.301 M124.023 273.828 C 125.082 274.902,126.035 275.781,126.143 275.781 C 126.250 275.781,125.472 274.902,124.414 273.828 C 123.356 272.754,122.402 271.875,122.295 271.875 C 122.188 271.875,122.965 272.754,124.023 273.828 M153.423 286.214 C 153.908 286.307,154.612 286.304,154.985 286.206 C 155.358 286.108,154.961 286.032,154.102 286.036 C 153.242 286.040,152.937 286.120,153.423 286.214 M200.488 322.926 C 200.864 323.024,201.479 323.024,201.855 322.926 C 202.231 322.827,201.924 322.747,201.172 322.747 C 200.420 322.747,200.112 322.827,200.488 322.926 M238.770 323.717 C 239.360 323.807,240.327 323.807,240.918 323.717 C 241.509 323.628,241.025 323.555,239.844 323.555 C 238.662 323.555,238.179 323.628,238.770 323.717  M -25 0 L -5 0 L -5 20 L -25 20 Z M 405 0 L 425 0 L 425 20 L 405 20 Z" stroke="none" fill="#9baca4" fill-rule="evenodd" transform="translate(490,460)"></path></g></svg>