<svg xmlns="http://www.w3.org/2000/svg" viewBox="0 0 64 64" width="32" height="32">
  <!-- בועית: רקע שקוף, סטרוק בלבד -->
  <path fill="none" stroke="#427A6D" stroke-width="2" stroke-linejoin="round" d="M12 6C7.6 6 4 9.6 4 14v22c0 4.4 3.6 8 8 8h14l6 6 6-6h14c4.4 0 8-3.6 8-8V14c0-4.4-3.6-8-8-8H12z"/>
  <path fill="none" stroke="#427A6D" stroke-width="2" stroke-linejoin="round" d="M14 42L8 52L14 48L14 42z"/>
  <!-- כף: סטרוק בלבד -->
  <g transform="rotate(-32 32 32)" fill="none" stroke="#427A6D" stroke-width="1.8" stroke-linecap="round" stroke-linejoin="round">
    <rect x="30.5" y="12" width="3" height="28" rx="1.2"/>
    <circle cx="32" cy="11" r="2.2"/>
    <ellipse cx="32" cy="42" rx="7" ry="8"/>
    <line x1="28" y1="38" x2="28" y2="46"/>
    <line x1="30.5" y1="37" x2="30.5" y2="47"/>
    <line x1="33.5" y1="37" x2="33.5" y2="47"/>
    <line x1="36" y1="38" x2="36" y2="46"/>
  </g>
</svg>
