<?xml version="1.0" encoding="UTF-8"?>
<svg xmlns="http://www.w3.org/2000/svg" version="1.1" viewBox="0 0 1024 1024" width="1024" height="1024">
  <path d="M0 0 C337.92 0 675.84 0 1024 0 C1024 337.92 1024 675.84 1024 1024 C686.08 1024 348.16 1024 0 1024 C0 686.08 0 348.16 0 0 Z " fill="#EAE8DD"/>
  <path d="M0 0 C23.98621061 17.02764416 37.7343681 45.43132466 42.8125 73.875 C45.00421325 87.58536763 44.51737749 100.6531954 41.75390625 114.23046875 C41.03598315 117.82008427 40.4844384 121.37376693 40 125 C40.64211426 125.06469482 41.28422852 125.12938965 41.94580078 125.19604492 C74.3754298 128.55073484 105.69890679 135.08015888 131 157 C134.36479541 155.72802444 137.40240084 154.27689781 140.484375 152.42578125 C177.77605471 130.36310859 177.77605471 130.36310859 196.23046875 134.5 C202.13038126 136.44818875 205.55958641 139.83937961 209 145 C209.74461426 149.65383916 208.98793428 152.60425133 206.625 156.5625 C200.24965365 165.34166546 188.88219913 169.87177063 178.42578125 171.5859375 C164.40021072 173.13277832 149.10492218 173.8359892 136 168 C136.45375 168.9075 136.9075 169.815 137.375 170.75 C147.42995369 194.91048115 139.34713142 223.39045231 130.11181641 246.36962891 C125.49859942 257.28372636 119.91252457 267.1330464 112 276 C111.33742188 276.804375 110.67484375 277.60875 109.9921875 278.4375 C90.776966 301.12706044 63.95290824 311.23859132 35.375 315.9375 C31.03184191 316.67662178 27.04488951 317.9577545 22.875 319.375 C-13.62277702 331.24383706 -56.55098082 329.19145511 -91.13208008 312.16357422 C-117.03657247 298.62728346 -134.54020917 275.79165564 -143.375 248.25 C-143.61371826 247.50669434 -143.85243652 246.76338867 -144.09838867 245.99755859 C-147.51482829 234.70168481 -148.3865776 223.57606213 -148.375 211.8125 C-148.3764502 211.13589325 -148.37790039 210.4592865 -148.37939453 209.76217651 C-148.37686382 199.0586762 -147.38735676 189.17719241 -144 179 C-145.02480469 179.34933594 -146.04960937 179.69867188 -147.10546875 180.05859375 C-148.46609137 180.51839036 -149.82677151 180.9780168 -151.1875 181.4375 C-152.19780273 181.78264648 -152.19780273 181.78264648 -153.22851562 182.13476562 C-168.74933983 187.35884792 -186.04082193 186.72391005 -200.83203125 179.64453125 C-207.4702647 176.01925881 -210.86416409 172.16996536 -214.3125 165.4375 C-215.86758781 159.92400685 -215.05696431 155.91790793 -212.4140625 150.96484375 C-209.5370968 146.96729196 -205.37158896 144.18579448 -201 142 C-179.9994298 140.30536768 -166.48892966 147.91030601 -149.08984375 158.85546875 C-145.46915563 161.1265617 -141.8762511 163.20241307 -138 165 C-137.35675781 164.29875 -136.71351563 163.5975 -136.05078125 162.875 C-120.70771123 146.76587085 -100.80512727 138.54535139 -79.42871094 133.57885742 C-77.69247177 133.16504328 -75.96179319 132.72761282 -74.23535156 132.2746582 C-66.70803693 130.30596637 -59.21046827 128.85560924 -51.5 127.8125 C-50.53416992 127.6816803 -50.53416992 127.6816803 -49.54882812 127.54821777 C-26.89219979 124.6059575 -3.78997969 125.6512222 19 126 C17.72722124 114.54984196 17.72722124 114.54984196 13.5625 103.9375 C13.21396973 103.27395508 12.86543945 102.61041016 12.50634766 101.92675781 C3.0987782 84.78553444 -12.56894675 73.40300903 -28.08496094 62.15405273 C-40.69726764 52.93530077 -56.4195984 41.41422132 -59 25 C-59.74612265 16.17443495 -59.75055677 9.05814058 -54 2 C-39.49924341 -14.81150071 -16.91710808 -10.16355054 0 0 Z " fill="#59786D" transform="translate(516,288)"/>
  <path d="M0 0 C7.45463746 18.15042165 4.5641171 37.90322107 -2.69995117 55.62207031 C-10.92437398 74.84704622 -24.94607144 92.64591838 -41 106 C-41.76441406 106.67546875 -42.52882813 107.3509375 -43.31640625 108.046875 C-54.02779117 117.27011331 -66.26355863 124.4360531 -79 130.5 C-79.65693848 130.81396729 -80.31387695 131.12793457 -80.99072266 131.45141602 C-82.97426037 132.36059966 -84.97247006 133.19389101 -87 134 C-87.69254883 134.28697754 -88.38509766 134.57395508 -89.09863281 134.86962891 C-97.40567042 137.86221531 -106.04695341 137.46184546 -114.75 137.375 C-115.57324768 137.37034729 -116.39649536 137.36569458 -117.24468994 137.36090088 C-158.25089122 137.08907287 -200.48219824 126.87884352 -230.5234375 97.53515625 C-240.547469 86.98084322 -248.94472342 73.75265912 -249.375 58.8125 C-249 55 -249 55 -247 53 C-244.14767017 53.0983562 -242.90349813 54.07824476 -240.6875 55.875 C-231.57389043 65.76188553 -226.54496042 78.95208448 -221 91 C-218.525 90.505 -218.525 90.505 -216 90 C-215.59483795 84.29089845 -216.79439423 80.39409202 -219.4375 75.4375 C-219.96851318 74.40737793 -219.96851318 74.40737793 -220.51025391 73.35644531 C-223.69446296 67.30491924 -227.31777534 61.5705629 -231.1171875 55.890625 C-233 53 -233 53 -234.13671875 50.68359375 C-235.73134489 47.57371199 -238.84465042 47.05178319 -242 46 C-247.99107353 45.31727307 -247.99107353 45.31727307 -252.9375 48.375 C-257.21071881 53.81364212 -256.59821046 59.28752217 -256 66 C-252.94597505 79.65748541 -246.17555134 91.23149582 -236.46875 101.29296875 C-235 103 -235 103 -235 105 C-234.41347656 105.26425781 -233.82695312 105.52851562 -233.22265625 105.80078125 C-230.92028969 107.04300714 -229.33525385 108.39631548 -227.4375 110.1875 C-203.58099597 131.37382652 -167.94319236 140.73689972 -137 144 C-137 144.66 -137 145.32 -137 146 C-170.88801977 150.17705214 -205.34919293 144.41266766 -232.88671875 123.48828125 C-255.30835224 105.56785398 -265.49637466 79.89534346 -269 52 C-269.27550418 47.91143916 -269.33368459 43.84697103 -269.3125 39.75 C-269.30976074 38.66750977 -269.30702148 37.58501953 -269.30419922 36.46972656 C-269.16874448 26.00390171 -268.19677568 15.70732461 -264 6 C-258.83651613 6.57298015 -254.31607789 7.83869701 -249.4375 9.625 C-229.74314619 16.47401705 -208.72880464 20.88298386 -188 23 C-187.04770508 23.10151367 -186.09541016 23.20302734 -185.11425781 23.30761719 C-151.3295342 26.7435355 -116.66582206 26.38069611 -83 22 C-81.65887986 21.83182623 -80.31773354 21.66386112 -78.9765625 21.49609375 C-53.47279598 18.25352853 -23.73840392 0 0 0 Z " fill="#EAE8DD" transform="translate(645,459)"/>
  <path d="M0 0 C-3 2 -3 2 -5.26953125 3.26171875 C-12.27420874 7.18907249 -17.7713016 11.4663704 -21 19 C-21.53887938 24.38879376 -21.12830465 28.46878055 -18.4453125 33.234375 C-15.06064968 37.36915229 -10.47568599 38.68602816 -5.3203125 39.33984375 C7.90753199 39.80825184 19.2358555 33.93202732 29.3125 25.6875 C37.00795441 18.51782198 41.54736839 9.38275969 46 0 C64.65869754 1.22576775 83.41968206 3.37286444 101 10 C102.04873291 10.38478516 102.04873291 10.38478516 103.11865234 10.77734375 C114.68162742 15.05746204 124.14028151 20.55349932 134 28 C133.03985081 30.39336117 132.42012354 31.73693039 130.20336914 33.125 C129.48785889 33.41375 128.77234863 33.7025 128.03515625 34 C127.24125488 34.32766357 126.44735352 34.65532715 125.62939453 34.99291992 C124.78231934 35.32525635 123.93524414 35.65759277 123.0625 36 C122.19222168 36.35102783 121.32194336 36.70205566 120.42529297 37.0637207 C118.70659954 37.75309027 116.98529926 38.43600259 115.26123047 39.11181641 C113.51162556 39.79903976 111.77130711 40.50993183 110.03515625 41.23046875 C100.72109196 44.92892216 90.7649728 46.87262424 81 49 C80.30729004 49.15355957 79.61458008 49.30711914 78.90087891 49.46533203 C73.95910756 50.53392543 69.00472137 51.30651171 64 52 C63.06333496 52.13680176 62.12666992 52.27360352 61.16162109 52.41455078 C41.53602878 55.14007143 21.86654386 55.29617185 2.09098053 55.31052017 C0.03116277 55.31247049 -2.028629 55.31758225 -4.08843994 55.3230896 C-26.5001422 55.36747963 -48.71944607 54.62738367 -70.77832031 50.41650391 C-73.08518917 49.98402937 -75.39676781 49.59059264 -77.7109375 49.19921875 C-87.41224398 47.48836516 -96.70323245 45.01962055 -106.0625 41.9375 C-107.10422363 41.5969458 -108.14594727 41.2563916 -109.21923828 40.90551758 C-110.67499268 40.40894653 -110.67499268 40.40894653 -112.16015625 39.90234375 C-113.02261963 39.60835693 -113.88508301 39.31437012 -114.77368164 39.01147461 C-117.06637962 37.969842 -118.36226842 36.88881703 -120 35 C-98.97506739 11.80007436 -64.24123368 6.02869106 -34.70874023 2.56201172 C-32.0379863 2.24710965 -29.3696795 1.9153818 -26.70117188 1.58203125 C-17.77030465 0.49319567 -9.01627034 -0.37152125 0 0 Z " fill="#E9E8DD" transform="translate(506,421)"/>
  <path d="M0 0 C22.11982398 17.13109772 35.56785307 44.30771777 39.08984375 71.90234375 C40.24580081 85.72632336 41.34289253 105.36066121 33.375 117.3125 C32.715 117.3125 32.055 117.3125 31.375 117.3125 C31.27703125 116.57386719 31.1790625 115.83523438 31.078125 115.07421875 C28.29751966 96.20924974 19.67208859 82.54044546 6.375 69.3125 C5.53324219 68.47074219 4.69148437 67.62898438 3.82421875 66.76171875 C-2.50747476 60.74513285 -9.43134908 55.69353818 -16.48754883 50.56811523 C-44.10153411 30.44806139 -44.10153411 30.44806139 -47.625 16.3125 C-48.41471082 10.40188085 -48.44934022 4.89080546 -45.03125 -0.1875 C-33.01692382 -13.00278126 -12.90531476 -8.95507299 0 0 Z " fill="#E9E7DC" transform="translate(512.625,295.6875)"/>
  <path d="M0 0 C10.32222257 5.27053813 21.06288077 11.02023728 30.23388672 18.140625 C17.18764371 24.77649181 1.06332922 26.46979556 -13.28955078 23.3828125 C-20.19733505 20.97928208 -26.94404293 17.60874406 -30.76611328 11.140625 C-31.64565037 6.10327624 -31.64565037 6.10327624 -30.76611328 3.140625 C-22.57336174 -6.96957903 -10.67035388 -5.03563402 0 0 Z " fill="#E8E6DB" transform="translate(340.76611328125,440.859375)"/>
  <path d="M0 0 C2.171875 1.66015625 2.171875 1.66015625 3.296875 4.53515625 C3.171875 7.66015625 3.171875 7.66015625 1.359375 10.22265625 C-9.94403092 19.96049348 -25.49163926 22.33747054 -39.828125 21.66015625 C-50.36325206 20.39259272 -50.36325206 20.39259272 -53.828125 18.66015625 C-52.79165079 15.3046642 -51.67182654 14.5670182 -48.58984375 12.73046875 C-47.23803266 12.06907626 -45.87948187 11.42133836 -44.515625 10.78515625 C-43.44453491 10.26961182 -43.44453491 10.26961182 -42.35180664 9.74365234 C-40.18262401 8.7040463 -38.00577879 7.68187054 -35.828125 6.66015625 C-34.5933013 6.06733997 -33.35889555 5.47365198 -32.125 4.87890625 C-22.46001595 0.293658 -10.54441719 -4.99549046 0 0 Z " fill="#E6E5DA" transform="translate(713.828125,431.33984375)"/>
  <path d="M0 0 C-2.62253475 11.0192469 -7.65813286 19.39567634 -17 26 C-22.71489481 29.43707197 -28.32625762 31.22706708 -35 30 C-38.91987848 28.18005642 -40.54374596 27.16598255 -42.125 23.125 C-41.91173912 17.79347812 -39.0709682 15.04546896 -35.375 11.4375 C-28.84400066 6.39375793 -21.66851437 3.6993435 -13.75 1.6875 C-13.07662598 1.51597412 -12.40325195 1.34444824 -11.70947266 1.16772461 C-7.73349385 0.22459688 -4.08061503 -0.17108169 0 0 Z " fill="#E7E6DB" transform="translate(534,423)"/>
</svg>
