<svg xmlns="http://www.w3.org/2000/svg" viewBox="0 0 64 64" width="64" height="64">
  <defs>
    <linearGradient id="bubbleBg" x1="0%" y1="0%" x2="100%" y2="100%">
      <stop offset="0%" style="stop-color:#407076"/>
      <stop offset="100%" style="stop-color:#698996"/>
    </linearGradient>
  </defs>
  <!-- בועית דיבור (מעוגלת) -->
  <path fill="url(#bubbleBg)" d="M8 4h48c2.2 0 4 1.8 4 4v28c0 2.2-1.8 4-4 4H30l-6 6-6-6H8c-2.2 0-4-1.8-4-4V8c0-2.2 1.8-4 4-4z" rx="10" ry="10"/>
  <!-- זנב בועית (משולש למטה) -->
  <path fill="url(#bubbleBg)" d="M26 44h12l-4 8h-4l-4-8z"/>
  <!-- כף: ידית -->
  <rect x="30" y="14" width="4" height="26" rx="1" fill="#FFEEDD"/>
  <!-- כף: קערית -->
  <ellipse cx="32" cy="42" rx="6" ry="7" fill="#FFEEDD"/>
</svg>
